# xmcd
#
# Track frame offsets:
#	150
#	17662
#	33825
#	49520
#	62994
#	82666
#	101432
#	121869
#	136627
#	161472
#	171228
#	203680
#	219383
#	229136
#	240862
#	255082
#	267497
#	278153
#	289505
#	334547
#
# Disc length: 4677 seconds
#
# Revision: 0
# Processed by: cddbd v1.5PL3 Copyright (c) Steve Scherf et al.
# Submitted via: dBpowerAMP V4.0
#
DISCID=f9124314
DTITLE=John Fogerty - The Best Of
DYEAR=2002
DGENRE=
TTITLE0=Centerfield
TTITLE1=The Old Man Down the Road
TTITLE2=Rock and Roll Girls
TTITLE3=Big Rain From Memphis
TTITLE4=I Saw It on TV
TTITLE5=Mr. Greed
TTITLE6=Searchlight
TTITLE7=I Can't Help Myself
TTITLE8=Vawz Kant Danz
TTITLE9=Travelin' Band
TTITLE10=Ramble Tamble
TTITLE11=Before You Accuse Me
TTITLE12=Ooby Dooby
TTITLE13=Lookin' Out My Back Door
TTITLE14=Run Through the Jungle
TTITLE15=Up Around the Bend
TTITLE16=My Baby Left Me
TTITLE17=Who'll Stop the Rain
TTITLE18=I Hear It Through the Grapevine
TTITLE19=Long as I Can See the Light
EXTD=
EXTT0=
EXTT1=
EXTT2=
EXTT3=
EXTT4=
EXTT5=
EXTT6=
EXTT7=
EXTT8=
EXTT9=
EXTT10=
EXTT11=
EXTT12=
EXTT13=
EXTT14=
EXTT15=
EXTT16=
EXTT17=
EXTT18=
EXTT19=
PLAYORDER=
